<svg width="36" height="36" viewBox="0 0 36 36" fill="none" xmlns="http://www.w3.org/2000/svg">
<path d="M32.5012 15.1481C31.7102 16.0556 30.6211 16.6506 29.4301 16.8259C28.2392 17.0012 27.0247 16.7454 26.0058 16.1044C26.0013 16.1026 25.9962 16.1026 25.9917 16.1044L16.0988 25.9988C16.0988 25.9988 16.0988 25.9988 16.0988 26.01C16.4996 26.6557 16.7499 27.3833 16.8312 28.1389C16.9124 28.8945 16.8225 29.6587 16.5681 30.3749C16.3137 31.091 15.9013 31.7407 15.3616 32.2757C14.8218 32.8107 14.1685 33.2173 13.4502 33.4653C12.7318 33.7134 11.9669 33.7966 11.212 33.7087C10.4571 33.6207 9.73173 33.364 9.08963 32.9575C8.44753 32.5509 7.90519 32.0051 7.50285 31.3603C7.10051 30.7156 6.84848 29.9886 6.76547 29.2331C6.01004 29.1501 5.283 28.8981 4.63827 28.4957C3.99354 28.0934 3.44766 27.5511 3.04114 26.909C2.63461 26.2669 2.37786 25.5415 2.28994 24.7866C2.20202 24.0317 2.28518 23.2668 2.53325 22.5484C2.78132 21.8301 3.18794 21.1768 3.72294 20.637C4.25794 20.0973 4.9076 19.6849 5.62372 19.4305C6.33985 19.1761 7.10406 19.0862 7.85968 19.1674C8.6153 19.2487 9.34292 19.499 9.98859 19.8998C9.99312 19.9016 9.99813 19.9016 10.0027 19.8998L19.8956 10.0055C19.8956 10.0055 19.8956 10.0055 19.8956 9.99422C19.4948 9.34855 19.2445 8.62092 19.1632 7.8653C19.082 7.10969 19.1719 6.34547 19.4263 5.62935C19.6807 4.91322 20.0931 4.26357 20.6328 3.72856C21.1726 3.19356 21.8258 2.78694 22.5442 2.53887C23.2625 2.2908 24.0275 2.20764 24.7824 2.29557C25.5373 2.38349 26.2626 2.64024 26.9047 3.04676C27.5468 3.45329 28.0892 3.99916 28.4915 4.64389C28.8939 5.28863 29.1459 6.01567 29.2289 6.77109C30.1522 6.86829 31.0311 7.21753 31.7693 7.78062C32.5075 8.3437 33.0766 9.09895 33.4144 9.96375C33.7522 10.8286 33.8457 11.7696 33.6847 12.684C33.5236 13.5983 33.1142 14.4508 32.5012 15.1481Z" fill="#2E0E73"/>
</svg>
