<svg width="36" height="36" viewBox="0 0 36 36" fill="none" xmlns="http://www.w3.org/2000/svg">
<path d="M33.4209 10.9125C33.3165 11.0171 33.1924 11.1001 33.0558 11.1567C32.9192 11.2133 32.7728 11.2424 32.625 11.2424C32.4772 11.2424 32.3308 11.2133 32.1942 11.1567C32.0576 11.1001 31.9335 11.0171 31.8291 10.9125L29.25 8.33203L25.2141 12.375L30.0445 17.2055C30.2556 17.4166 30.3742 17.7029 30.3742 18.0014C30.3742 18.2999 30.2556 18.5862 30.0445 18.7973C29.8334 19.0084 29.5471 19.127 29.2486 19.127C28.9501 19.127 28.6638 19.0084 28.4527 18.7973L27.5625 17.8973L15.75 29.7098C15.541 29.9205 15.2923 30.0877 15.0184 30.2019C14.7445 30.316 14.4507 30.3749 14.1539 30.375L7.20844 30.375L4.1625 33.4209C4.05311 33.5305 3.92229 33.6162 3.77822 33.6729C3.63416 33.7296 3.47995 33.7559 3.32525 33.7502C3.17055 33.7445 3.01868 33.707 2.87916 33.6399C2.73963 33.5729 2.61545 33.4777 2.51438 33.3605C2.33033 33.1369 2.23699 32.8524 2.25288 32.5633C2.26877 32.2742 2.39272 32.0016 2.60016 31.7995L5.61656 28.7817L5.61656 21.8363C5.61796 21.2411 5.85511 20.6707 6.27609 20.25L8.41078 18.1153C8.46302 18.063 8.52506 18.0215 8.59335 17.9932C8.66163 17.9649 8.73483 17.9503 8.80875 17.9503C8.88267 17.9503 8.95587 17.9649 9.02415 17.9932C9.09244 18.0215 9.15448 18.063 9.20672 18.1153L13.2609 22.1667C13.3655 22.2712 13.4896 22.3542 13.6261 22.4107C13.7627 22.4673 13.9091 22.4964 14.0569 22.4964C14.2047 22.4964 14.3511 22.4673 14.4876 22.4107C14.6242 22.3542 14.7483 22.2712 14.8528 22.1667C14.9573 22.0622 15.0403 21.9381 15.0968 21.8015C15.1534 21.665 15.1825 21.5186 15.1825 21.3708C15.1825 21.223 15.1534 21.0766 15.0968 20.94C15.0403 20.8035 14.9573 20.6794 14.8528 20.5748L10.7972 16.5192C10.7449 16.467 10.7034 16.4049 10.6751 16.3367C10.6468 16.2684 10.6322 16.1952 10.6322 16.1213C10.6322 16.0473 10.6468 15.9741 10.6751 15.9058C10.7034 15.8376 10.7449 15.7755 10.7972 15.7233L12.3441 14.1764C12.3963 14.1241 12.4583 14.0826 12.5266 14.0543C12.5949 14.026 12.6681 14.0114 12.742 14.0114C12.816 14.0114 12.8891 14.026 12.9574 14.0543C13.0257 14.0826 13.0878 14.1241 13.14 14.1764L17.1956 18.232C17.3001 18.3366 17.4242 18.4195 17.5608 18.476C17.6974 18.5326 17.8437 18.5617 17.9916 18.5617C18.1394 18.5617 18.2858 18.5326 18.4223 18.476C18.5589 18.4195 18.683 18.3366 18.7875 18.232C18.892 18.1275 18.9749 18.0034 19.0315 17.8669C19.0881 17.7303 19.1172 17.5839 19.1172 17.4361C19.1172 17.2883 19.0881 17.1419 19.0315 17.0053C18.9749 16.8688 18.892 16.7447 18.7875 16.6402L14.7361 12.5803C14.6838 12.5281 14.6423 12.466 14.614 12.3977C14.5857 12.3295 14.5711 12.2563 14.5711 12.1823C14.5711 12.1084 14.5857 12.0352 14.614 11.9669C14.6423 11.8987 14.6838 11.8366 14.7361 11.7844L18.0928 8.42906L17.1998 7.53609C17.0932 7.42953 17.0091 7.30262 16.9525 7.16292C16.8959 7.02321 16.868 6.87356 16.8703 6.72284C16.8727 6.57213 16.9053 6.42342 16.9663 6.28556C17.0272 6.1477 17.1153 6.02349 17.2252 5.92031C17.4477 5.72187 17.7382 5.61708 18.0362 5.62782C18.3341 5.63856 18.6164 5.76402 18.8241 5.97797L23.625 10.7761L27.6595 6.74016L25.0777 4.15969C24.971 4.05321 24.8868 3.92638 24.83 3.78673C24.7733 3.64708 24.7452 3.49745 24.7475 3.34674C24.7497 3.19602 24.7822 3.04729 24.843 2.90937C24.9038 2.77146 24.9918 2.64718 25.1016 2.54391C25.3243 2.34537 25.6151 2.24054 25.9133 2.25128C26.2115 2.26202 26.494 2.38752 26.7019 2.60156L33.4209 9.32063C33.5255 9.42511 33.6085 9.54918 33.6651 9.68576C33.7217 9.82233 33.7509 9.96872 33.7509 10.1166C33.7509 10.2644 33.7217 10.4108 33.6651 10.5474C33.6085 10.6839 33.5255 10.808 33.4209 10.9125Z" fill="#2E0E73"/>
</svg>
