<svg width="36" height="36" viewBox="0 0 36 36" fill="none" xmlns="http://www.w3.org/2000/svg">
<path d="M30.0024 24.6861C30.6584 24.9242 31.1963 25.4078 31.5026 26.0349C31.8088 26.662 31.8594 27.3836 31.6437 28.0473C31.428 28.7111 30.9629 29.265 30.3466 29.5924C29.7302 29.9197 29.0108 29.9947 28.3401 29.8017C28.3146 30.4981 28.02 31.1575 27.5183 31.6412C27.0166 32.1249 26.3469 32.3952 25.65 32.3952C24.9531 32.3952 24.2834 32.1249 23.7817 31.6412C23.28 31.1575 22.9854 30.4981 22.9599 29.8017C22.2892 29.9947 21.5698 29.9197 20.9534 29.5924C20.3371 29.265 19.872 28.7111 19.6563 28.0473C19.4406 27.3836 19.4912 26.662 19.7975 26.0349C20.1037 25.4078 20.6416 24.9242 21.2976 24.6861C20.9036 24.1079 20.7503 23.399 20.8702 22.7096C20.99 22.0203 21.3737 21.4048 21.9398 20.9935C22.5059 20.5823 23.2099 20.4077 23.9025 20.5068C24.5951 20.6059 25.2219 20.9709 25.65 21.5244C26.0781 20.9709 26.7049 20.6059 27.3975 20.5068C28.0901 20.4077 28.7941 20.5823 29.3602 20.9935C29.9263 21.4048 30.31 22.0203 30.4298 22.7096C30.5497 23.399 30.3964 24.1079 30.0024 24.6861ZM25.65 28.35C26.095 28.35 26.53 28.218 26.9 27.9708C27.27 27.7236 27.5584 27.3722 27.7287 26.961C27.899 26.5499 27.9436 26.0975 27.8568 25.661C27.77 25.2246 27.5557 24.8237 27.241 24.509C26.9263 24.1943 26.5254 23.98 26.089 23.8932C25.6525 23.8064 25.2001 23.851 24.789 24.0213C24.3778 24.1916 24.0264 24.48 23.7792 24.85C23.532 25.22 23.4 25.655 23.4 26.1C23.4 26.6967 23.6371 27.269 24.059 27.691C24.481 28.1129 25.0533 28.35 25.65 28.35Z" fill="#2E0E73"/>
<path d="M17.946 28.6029C17.6777 27.8011 17.6443 26.9392 17.8499 26.1191C18.0554 25.2989 18.4913 24.5547 19.1061 23.9742C19.0243 23.5198 19.0152 23.0553 19.0791 22.5981C19.1474 22.1411 19.2789 21.6959 19.4697 21.2751C18.0909 21.4963 16.6964 21.605 15.3 21.6C9.2583 21.6 5.4 19.7352 5.4 18.45C5.4 17.73 6.6807 16.74 9.1332 16.0596C9.04802 16.4 9.00331 16.7492 9 17.1C9 17.3387 9.09482 17.5676 9.2636 17.7364C9.43239 17.9052 9.66131 18 9.9 18C10.1387 18 10.3676 17.9052 10.5364 17.7364C10.7052 17.5676 10.8 17.3387 10.8 17.1C10.8 16.3839 11.0845 15.6972 11.5908 15.1908C12.0972 14.6845 12.7839 14.4 13.5 14.4L16.65 14.4C17.3414 14.4011 18.0252 14.2561 18.6567 13.9744C19.2881 13.6928 19.8528 13.2808 20.3139 12.7656C20.7119 13.0577 21.0356 13.4393 21.259 13.8795C21.4824 14.3197 21.5992 14.8063 21.6 15.3C21.5952 15.7846 21.4746 16.2611 21.2481 16.6896C21.1901 16.7951 21.1538 16.9112 21.1414 17.0309C21.129 17.1507 21.1408 17.2717 21.1761 17.3869C21.2113 17.502 21.2693 17.6089 21.3466 17.7012C21.4239 17.7935 21.5189 17.8694 21.6261 17.9243C21.7332 17.9792 21.8503 18.0121 21.9704 18.021C22.0905 18.0298 22.2111 18.0145 22.3251 17.9759C22.4392 17.9373 22.5443 17.8762 22.6344 17.7963C22.7244 17.7163 22.7974 17.6191 22.8492 17.5104C22.9866 17.2383 23.0995 16.9546 23.1867 16.6626C24.651 17.3124 25.2 18.0081 25.2 18.45V19.0143C25.3536 19.0749 25.5038 19.1437 25.65 19.2204C26.0728 18.9974 26.5286 18.8437 27 18.765V18.45C27 16.9875 25.704 15.7014 23.3631 14.7951C23.2742 13.9254 22.9566 13.0948 22.4425 12.3876C21.9284 11.6805 21.2362 11.1222 20.4363 10.7694C20.2384 10.6824 20.0159 10.6696 19.8093 10.7332C19.6027 10.7968 19.426 10.9327 19.3113 11.1159C19.0309 11.5695 18.6393 11.944 18.1735 12.2038C17.7077 12.4635 17.1833 12.5999 16.65 12.6L13.5 12.6C12.9049 12.5999 12.3156 12.7183 11.7668 12.9484C11.2179 13.1785 10.7204 13.5156 10.3032 13.9401L10.0044 14.0004C5.9346 14.823 3.6 16.4439 3.6 18.45L3.6 27.45C3.6 30.6648 9.63 32.4 15.3 32.4C17.4149 32.4093 19.523 32.1602 21.5775 31.6584C20.7445 31.5465 19.9606 31.1997 19.3175 30.6586C18.6744 30.1175 18.1987 29.4045 17.946 28.6029Z" fill="#2E0E73"/>
<path d="M29.1483 7.2C27.712 5.70221 25.903 4.61362 23.907 4.04597C21.9109 3.47832 19.7998 3.45205 17.7903 3.96987C15.7807 4.48769 13.9452 5.53094 12.4721 6.99253C10.9989 8.45412 9.9413 10.2814 9.4077 12.2868C9.4239 12.2868 9.4374 12.2787 9.4536 12.276C10.1294 11.7161 10.9157 11.3052 11.7612 11.07C12.8448 8.77167 14.7711 6.9784 17.141 6.06188C19.5109 5.14536 22.1426 5.17587 24.4907 6.14708C26.8387 7.11829 28.723 8.95574 29.753 11.2786C30.783 13.6014 30.8797 16.2315 30.0231 18.6237C29.9565 18.8109 29.8629 18.9837 29.7855 19.1709C30.0054 19.2803 30.2161 19.4074 30.4155 19.5507C30.7254 19.778 31.0049 20.0442 31.2471 20.3427C32.2763 18.1987 32.6268 15.7918 32.2518 13.4433C31.8767 11.0949 30.794 8.91679 29.1483 7.2Z" fill="#2E0E73"/>
</svg>
